<svg fill="#e0e4ef" stroke="#e0e4ef" xmlns="http://www.w3.org/2000/svg" xmlns:xlink="http://www.w3.org/1999/xlink" width="15.978ex" height="7.176ex" style="vertical-align: -3.005ex;" viewBox="0 -1796 6879.3 3089.6" role="img" focusable="false" aria-labelledby="MathJax-SVG-1-Title">
<title id="MathJax-SVG-1-Title">\boxed{
\frac{\partial P_3}{\partial\lambda_1}
=
-P_3P_1
}</title>
<defs aria-hidden="true">
<path stroke-width="1" id="E1-MJMAIN-2202" d="M202 508Q179 508 169 520T158 547Q158 557 164 577T185 624T230 675T301 710L333 715H345Q378 715 384 714Q447 703 489 661T549 568T566 457Q566 362 519 240T402 53Q321 -22 223 -22Q123 -22 73 56Q42 102 42 148V159Q42 276 129 370T322 465Q383 465 414 434T455 367L458 378Q478 461 478 515Q478 603 437 639T344 676Q266 676 223 612Q264 606 264 572Q264 547 246 528T202 508ZM430 306Q430 372 401 400T333 428Q270 428 222 382Q197 354 183 323T150 221Q132 149 132 116Q132 21 232 21Q244 21 250 22Q327 35 374 112Q389 137 409 196T430 306Z"></path>
<path stroke-width="1" id="E1-MJMATHI-50" d="M287 628Q287 635 230 637Q206 637 199 638T192 648Q192 649 194 659Q200 679 203 681T397 683Q587 682 600 680Q664 669 707 631T751 530Q751 453 685 389Q616 321 507 303Q500 302 402 301H307L277 182Q247 66 247 59Q247 55 248 54T255 50T272 48T305 46H336Q342 37 342 35Q342 19 335 5Q330 0 319 0Q316 0 282 1T182 2Q120 2 87 2T51 1Q33 1 33 11Q33 13 36 25Q40 41 44 43T67 46Q94 46 127 49Q141 52 146 61Q149 65 218 339T287 628ZM645 554Q645 567 643 575T634 597T609 619T560 635Q553 636 480 637Q463 637 445 637T416 636T404 636Q391 635 386 627Q384 621 367 550T332 412T314 344Q314 342 395 342H407H430Q542 342 590 392Q617 419 631 471T645 554Z"></path>
<path stroke-width="1" id="E1-MJMAIN-33" d="M127 463Q100 463 85 480T69 524Q69 579 117 622T233 665Q268 665 277 664Q351 652 390 611T430 522Q430 470 396 421T302 350L299 348Q299 347 308 345T337 336T375 315Q457 262 457 175Q457 96 395 37T238 -22Q158 -22 100 21T42 130Q42 158 60 175T105 193Q133 193 151 175T169 130Q169 119 166 110T159 94T148 82T136 74T126 70T118 67L114 66Q165 21 238 21Q293 21 321 74Q338 107 338 175V195Q338 290 274 322Q259 328 213 329L171 330L168 332Q166 335 166 348Q166 366 174 366Q202 366 232 371Q266 376 294 413T322 525V533Q322 590 287 612Q265 626 240 626Q208 626 181 615T143 592T132 580H135Q138 579 143 578T153 573T165 566T175 555T183 540T186 520Q186 498 172 481T127 463Z"></path>
<path stroke-width="1" id="E1-MJMATHI-3BB" d="M166 673Q166 685 183 694H202Q292 691 316 644Q322 629 373 486T474 207T524 67Q531 47 537 34T546 15T551 6T555 2T556 -2T550 -11H482Q457 3 450 18T399 152L354 277L340 262Q327 246 293 207T236 141Q211 112 174 69Q123 9 111 -1T83 -12Q47 -12 47 20Q47 37 61 52T199 187Q229 216 266 252T321 306L338 322Q338 323 288 462T234 612Q214 657 183 657Q166 657 166 673Z"></path>
<path stroke-width="1" id="E1-MJMAIN-31" d="M213 578L200 573Q186 568 160 563T102 556H83V602H102Q149 604 189 617T245 641T273 663Q275 666 285 666Q294 666 302 660V361L303 61Q310 54 315 52T339 48T401 46H427V0H416Q395 3 257 3Q121 3 100 0H88V46H114Q136 46 152 46T177 47T193 50T201 52T207 57T213 61V578Z"></path>
<path stroke-width="1" id="E1-MJMAIN-3D" d="M56 347Q56 360 70 367H707Q722 359 722 347Q722 336 708 328L390 327H72Q56 332 56 347ZM56 153Q56 168 72 173H708Q722 163 722 153Q722 140 707 133H70Q56 140 56 153Z"></path>
<path stroke-width="1" id="E1-MJMAIN-2212" d="M84 237T84 250T98 270H679Q694 262 694 250T679 230H98Q84 237 84 250Z"></path>
</defs>
<g fill="#e0e4ef" stroke="#e0e4ef" stroke-width="0" transform="matrix(1 0 0 -1 0 0)" aria-hidden="true">
<g fill="#e0e4ef" stroke="#e0e4ef" transform="translate(275,0)">
<g fill="#e0e4ef" stroke="#e0e4ef" transform="translate(120,0)">
<rect stroke="none" width="1783" height="60" x="0" y="220"></rect>
<g fill="#e0e4ef" stroke="#e0e4ef" transform="translate(60,685)">
 <use xlink:href="#E1-MJMAIN-2202" x="0" y="0"></use>
<g fill="#e0e4ef" stroke="#e0e4ef" transform="translate(567,0)">
 <use xlink:href="#E1-MJMATHI-50" x="0" y="0"></use>
 <use transform="scale(0.707)" xlink:href="#E1-MJMAIN-33" x="908" y="-213"></use>
</g>
</g>
<g fill="#e0e4ef" stroke="#e0e4ef" transform="translate(89,-736)">
 <use xlink:href="#E1-MJMAIN-2202" x="0" y="0"></use>
<g fill="#e0e4ef" stroke="#e0e4ef" transform="translate(567,0)">
 <use xlink:href="#E1-MJMATHI-3BB" x="0" y="0"></use>
 <use transform="scale(0.707)" xlink:href="#E1-MJMAIN-31" x="825" y="-213"></use>
</g>
</g>
</g>
 <use xlink:href="#E1-MJMAIN-3D" x="2301" y="0"></use>
 <use xlink:href="#E1-MJMAIN-2212" x="3357" y="0"></use>
<g fill="#e0e4ef" stroke="#e0e4ef" transform="translate(4136,0)">
 <use xlink:href="#E1-MJMATHI-50" x="0" y="0"></use>
 <use transform="scale(0.707)" xlink:href="#E1-MJMAIN-33" x="908" y="-213"></use>
</g>
<g fill="#e0e4ef" stroke="#e0e4ef" transform="translate(5232,0)">
 <use xlink:href="#E1-MJMATHI-50" x="0" y="0"></use>
 <use transform="scale(0.707)" xlink:href="#E1-MJMAIN-31" x="908" y="-213"></use>
</g>
</g>
<line stroke-linecap="square" stroke-width="75" y2="37" y1="37" x1="37" x2="6841" transform="translate(0,1601)"></line>
<line stroke-linecap="square" stroke-width="75" y1="37" x2="37" x1="37" y2="2800" transform="translate(6804,-1162)"></line>
<line stroke-linecap="square" stroke-width="75" y2="37" y1="37" x1="37" x2="6841" transform="translate(0,-1162)"></line>
<line stroke-linecap="square" stroke-width="75" y1="37" x2="37" x1="37" y2="2800" transform="translate(0,-1162)"></line>
</g>
</svg>